<mxfile host="app.diagrams.net" agent="Mozilla/5.0 (Windows NT 10.0; Win64; x64) AppleWebKit/537.36 (KHTML, like Gecko) Chrome/126.0.0.0 Safari/537.36 Edg/126.0.0.0" version="24.7.4">
  <diagram name="第 1 页" id="6oOBNnKYEpboCDrhg7d9">
    <mxGraphModel dx="1434" dy="835" grid="1" gridSize="10" guides="1" tooltips="1" connect="1" arrows="1" fold="1" page="1" pageScale="1" pageWidth="1920" pageHeight="1200" math="0" shadow="0">
      <root>
        <mxCell id="0" />
        <mxCell id="1" parent="0" />
        <mxCell id="EWG6a7z2NVEHWq2Y6NBj-8" value="" style="group" vertex="1" connectable="0" parent="1">
          <mxGeometry x="840" y="420" width="370" height="370" as="geometry" />
        </mxCell>
        <mxCell id="EWG6a7z2NVEHWq2Y6NBj-1" value="" style="whiteSpace=wrap;html=1;aspect=fixed;" vertex="1" parent="EWG6a7z2NVEHWq2Y6NBj-8">
          <mxGeometry width="370" height="370" as="geometry" />
        </mxCell>
        <mxCell id="EWG6a7z2NVEHWq2Y6NBj-2" value="数据服务层（也就是二开做的插件：主要是做接受数据的xml处理，已经数据库处理和返回信息）" style="rounded=0;whiteSpace=wrap;html=1;" vertex="1" parent="EWG6a7z2NVEHWq2Y6NBj-8">
          <mxGeometry x="60" y="50" width="250" height="50" as="geometry" />
        </mxCell>
        <mxCell id="EWG6a7z2NVEHWq2Y6NBj-6" value="" style="edgeStyle=orthogonalEdgeStyle;rounded=0;orthogonalLoop=1;jettySize=auto;html=1;" edge="1" parent="EWG6a7z2NVEHWq2Y6NBj-8" source="EWG6a7z2NVEHWq2Y6NBj-3" target="EWG6a7z2NVEHWq2Y6NBj-2">
          <mxGeometry relative="1" as="geometry" />
        </mxCell>
        <mxCell id="EWG6a7z2NVEHWq2Y6NBj-3" value="数据资产库（根据ETL或者Hadoop等工具，对主系统，如ERP系统，mes系统中的数据进行采集，组成的数据库）" style="rounded=0;whiteSpace=wrap;html=1;" vertex="1" parent="EWG6a7z2NVEHWq2Y6NBj-8">
          <mxGeometry x="60" y="155" width="250" height="55" as="geometry" />
        </mxCell>
        <mxCell id="EWG6a7z2NVEHWq2Y6NBj-5" value="" style="edgeStyle=orthogonalEdgeStyle;rounded=0;orthogonalLoop=1;jettySize=auto;html=1;" edge="1" parent="EWG6a7z2NVEHWq2Y6NBj-8" source="EWG6a7z2NVEHWq2Y6NBj-4" target="EWG6a7z2NVEHWq2Y6NBj-3">
          <mxGeometry relative="1" as="geometry" />
        </mxCell>
        <mxCell id="EWG6a7z2NVEHWq2Y6NBj-4" value="ETL、Hadoop进行数据清洗，采集" style="rounded=0;whiteSpace=wrap;html=1;" vertex="1" parent="EWG6a7z2NVEHWq2Y6NBj-8">
          <mxGeometry x="60" y="270" width="250" height="60" as="geometry" />
        </mxCell>
        <mxCell id="EWG6a7z2NVEHWq2Y6NBj-7" value="中台系统" style="text;html=1;align=center;verticalAlign=middle;whiteSpace=wrap;rounded=0;" vertex="1" parent="EWG6a7z2NVEHWq2Y6NBj-8">
          <mxGeometry x="155" width="60" height="30" as="geometry" />
        </mxCell>
        <mxCell id="EWG6a7z2NVEHWq2Y6NBj-16" value="" style="group" vertex="1" connectable="0" parent="1">
          <mxGeometry x="150" y="90" width="320" height="320" as="geometry" />
        </mxCell>
        <mxCell id="EWG6a7z2NVEHWq2Y6NBj-10" value="" style="whiteSpace=wrap;html=1;aspect=fixed;" vertex="1" parent="EWG6a7z2NVEHWq2Y6NBj-16">
          <mxGeometry width="320" height="320" as="geometry" />
        </mxCell>
        <mxCell id="EWG6a7z2NVEHWq2Y6NBj-12" value="ERP" style="rounded=1;whiteSpace=wrap;html=1;" vertex="1" parent="EWG6a7z2NVEHWq2Y6NBj-16">
          <mxGeometry x="20" y="70" width="50" height="150" as="geometry" />
        </mxCell>
        <mxCell id="EWG6a7z2NVEHWq2Y6NBj-14" value="MES" style="rounded=1;whiteSpace=wrap;html=1;" vertex="1" parent="EWG6a7z2NVEHWq2Y6NBj-16">
          <mxGeometry x="130" y="70" width="50" height="150" as="geometry" />
        </mxCell>
        <mxCell id="EWG6a7z2NVEHWq2Y6NBj-15" value="PLM" style="rounded=1;whiteSpace=wrap;html=1;" vertex="1" parent="EWG6a7z2NVEHWq2Y6NBj-16">
          <mxGeometry x="240" y="70" width="50" height="150" as="geometry" />
        </mxCell>
        <mxCell id="EWG6a7z2NVEHWq2Y6NBj-24" value="单体系统" style="text;html=1;align=center;verticalAlign=middle;whiteSpace=wrap;rounded=0;" vertex="1" parent="EWG6a7z2NVEHWq2Y6NBj-16">
          <mxGeometry x="125" y="260" width="60" height="30" as="geometry" />
        </mxCell>
        <mxCell id="EWG6a7z2NVEHWq2Y6NBj-20" style="edgeStyle=orthogonalEdgeStyle;rounded=0;orthogonalLoop=1;jettySize=auto;html=1;" edge="1" parent="1" source="EWG6a7z2NVEHWq2Y6NBj-2" target="EWG6a7z2NVEHWq2Y6NBj-10">
          <mxGeometry relative="1" as="geometry">
            <mxPoint x="680" y="495" as="targetPoint" />
          </mxGeometry>
        </mxCell>
        <mxCell id="EWG6a7z2NVEHWq2Y6NBj-27" value="提供调用的service，这些系统可以通过SOAP协议或者Restful+JSON的方式进行调用service" style="edgeLabel;html=1;align=center;verticalAlign=middle;resizable=0;points=[];" vertex="1" connectable="0" parent="EWG6a7z2NVEHWq2Y6NBj-20">
          <mxGeometry x="-0.0044" y="-3" relative="1" as="geometry">
            <mxPoint as="offset" />
          </mxGeometry>
        </mxCell>
        <mxCell id="EWG6a7z2NVEHWq2Y6NBj-21" style="edgeStyle=orthogonalEdgeStyle;rounded=0;orthogonalLoop=1;jettySize=auto;html=1;entryX=0.45;entryY=0.997;entryDx=0;entryDy=0;entryPerimeter=0;" edge="1" parent="1" source="EWG6a7z2NVEHWq2Y6NBj-4" target="EWG6a7z2NVEHWq2Y6NBj-10">
          <mxGeometry relative="1" as="geometry" />
        </mxCell>
        <mxCell id="EWG6a7z2NVEHWq2Y6NBj-26" value="从单体系统中获取具体的数据" style="edgeLabel;html=1;align=center;verticalAlign=middle;resizable=0;points=[];" vertex="1" connectable="0" parent="EWG6a7z2NVEHWq2Y6NBj-21">
          <mxGeometry x="0.1822" y="1" relative="1" as="geometry">
            <mxPoint as="offset" />
          </mxGeometry>
        </mxCell>
      </root>
    </mxGraphModel>
  </diagram>
</mxfile>
